<?xml version="1.0" encoding="utf-8"?>
<svg viewBox="0 0 500 500" xmlns="http://www.w3.org/2000/svg" xmlns:bx="https://boxy-svg.com">
  <path d="M 158.681 125.564 H 349.211 A 11.274 11.274 0 0 1 360.485 136.838 V 328.495 A 11.274 11.274 0 0 1 349.211 339.769 H 158.681 A 11.274 11.274 0 0 1 147.407 328.495 V 136.838 A 11.274 11.274 0 0 1 158.681 125.564 Z M 149.521 137.895 V 327.438 A 10.217 10.217 0 0 0 159.738 337.655 H 348.154 A 10.217 10.217 0 0 0 358.371 327.438 V 137.895 A 10.217 10.217 0 0 0 348.154 127.678 H 159.738 A 10.217 10.217 0 0 0 149.521 137.895 Z" style="fill: rgb(216, 216, 216); stroke: rgb(0, 0, 0);" bx:shape="frame 147.407 125.564 213.078 214.205 2.114 2.114 11.274 11.274 11.274 11.274 1@1689b83a"/>
  <path d="M 154.921 126.19 H 350.154 A 9.204 9.204 0 0 1 359.358 135.394 V 331.753 A 9.204 9.204 0 0 1 350.154 340.957 H 154.921 A 9.204 9.204 0 0 1 145.717 331.753 V 135.394 A 9.204 9.204 0 0 1 154.921 126.19 Z M 151.489 138.329 V 328.818 A 6.318 6.318 0 0 0 157.807 335.136 H 347.268 A 6.318 6.318 0 0 0 353.586 328.818 V 138.329 A 6.318 6.318 0 0 0 347.268 132.011 H 157.807 A 6.318 6.318 0 0 0 151.489 138.329 Z" style="fill: rgb(216, 216, 216); stroke: rgb(0, 0, 0);" bx:shape="frame 145.717 126.19 213.641 214.767 5.772 5.821 9.204 9.204 9.204 9.204 1@c5043dba"/>
</svg>