<?xml version="1.0" encoding="utf-8"?>
<svg viewBox="0 0 500 500" xmlns="http://www.w3.org/2000/svg" xmlns:bx="https://boxy-svg.com">
  <path d="M 158.681 125.564 H 349.211 A 11.274 11.274 0 0 1 360.485 136.838 V 328.495 A 11.274 11.274 0 0 1 349.211 339.769 H 158.681 A 11.274 11.274 0 0 1 147.407 328.495 V 136.838 A 11.274 11.274 0 0 1 158.681 125.564 Z M 149.521 137.895 V 327.438 A 10.217 10.217 0 0 0 159.738 337.655 H 348.154 A 10.217 10.217 0 0 0 358.371 327.438 V 137.895 A 10.217 10.217 0 0 0 348.154 127.678 H 159.738 A 10.217 10.217 0 0 0 149.521 137.895 Z" style="fill: rgb(216, 216, 216); stroke: rgb(0, 0, 0);" bx:shape="frame 147.407 125.564 213.078 214.205 2.114 2.114 11.274 11.274 11.274 11.274 1@1689b83a"/>
  <path d="M 157.596 126.19 H 353.679 A 9.061 9.061 0 0 1 362.74 135.251 V 328.514 A 9.061 9.061 0 0 1 353.679 337.575 H 157.596 A 9.061 9.061 0 0 1 148.535 328.514 V 135.251 A 9.061 9.061 0 0 1 157.596 126.19 Z M 154.323 138.086 V 325.679 A 6.167 6.167 0 0 0 160.49 331.846 H 350.785 A 6.167 6.167 0 0 0 356.952 325.679 V 138.086 A 6.167 6.167 0 0 0 350.785 131.919 H 160.49 A 6.167 6.167 0 0 0 154.323 138.086 Z" style="fill: rgb(216, 216, 216); stroke: rgb(0, 0, 0);" bx:shape="frame 148.535 126.19 214.205 211.385 5.788 5.729 9.061 9.061 9.061 9.061 1@8a85f0cc"/>
</svg>